<svg xmlns="http://www.w3.org/2000/svg" xmlns:xlink="http://www.w3.org/1999/xlink" preserveAspectRatio="xMidYMid" width="392.469" height="82.687" viewBox="0 0 392.469 82.687">
  <defs>
    <style>
      .cls-1 {
        fill: #fff;
        fill-rule: evenodd;
      }
    </style>
  </defs>
  <path d="M392.460,22.782 L392.460,29.813 L324.960,29.813 L324.960,22.782 L353.085,22.782 L353.085,20.532 L329.741,20.532 L329.741,14.345 L353.085,14.345 L353.085,12.095 L326.929,12.095 L326.929,5.063 L353.085,5.063 L353.085,0.563 L364.335,0.563 L364.335,5.063 L390.491,5.063 L390.491,12.095 L364.335,12.095 L364.335,14.345 L387.679,14.345 L387.679,20.532 L364.335,20.532 L364.335,22.782 L392.460,22.782 ZM299.040,18.001 L310.571,14.626 C312.070,19.126 314.601,26.254 318.165,36.001 C320.037,41.441 321.443,45.471 322.384,48.095 L310.290,52.032 C306.915,40.409 303.162,29.066 299.040,18.001 ZM282.727,66.095 C279.352,66.279 275.415,66.376 270.915,66.376 C270.726,64.126 270.163,61.217 269.227,57.657 C268.849,56.348 268.568,55.407 268.384,54.845 C270.445,55.034 273.538,55.126 277.665,55.126 C281.040,55.126 282.631,53.535 282.446,50.345 L282.446,1.407 L294.821,1.407 L294.821,54.001 C295.384,62.060 291.349,66.095 282.727,66.095 ZM253.196,48.376 C257.318,37.126 260.790,26.065 263.602,15.188 L275.696,18.001 C272.321,29.440 268.568,40.971 264.446,52.595 L253.196,48.376 ZM215.700,77.626 C221.325,74.624 224.230,70.687 224.419,65.813 L216.825,65.813 L216.825,51.751 L231.450,51.751 C231.450,54.190 231.450,58.220 231.450,63.845 C232.012,72.282 227.886,78.562 219.075,82.688 L215.700,77.626 ZM170.047,66.657 C154.671,65.717 146.607,58.127 145.860,43.876 C146.607,28.877 154.763,21.095 170.329,20.532 C185.701,21.095 193.672,28.877 194.235,43.876 C193.672,58.501 185.608,66.095 170.047,66.657 ZM169.766,30.938 C163.201,30.938 159.922,35.254 159.922,43.876 C160.107,52.129 163.390,56.348 169.766,56.532 C176.701,56.532 180.172,52.313 180.172,43.876 C179.983,35.438 176.516,31.127 169.766,30.938 ZM126.127,0.001 L139.909,0.001 L139.909,65.532 L126.127,65.532 L126.127,0.001 ZM104.426,0.001 L118.207,0.001 L118.207,65.532 L104.426,65.532 L104.426,0.001 ZM74.569,57.657 C79.631,57.473 82.817,55.596 84.131,52.032 L98.756,53.720 C95.192,62.342 87.225,66.657 74.850,66.657 C58.722,66.095 50.284,58.782 49.537,44.720 C50.100,29.159 57.975,21.095 73.162,20.532 C89.475,20.532 97.723,28.504 97.912,44.438 L97.912,47.813 L63.319,47.813 C63.881,53.816 67.630,57.095 74.569,57.657 ZM84.694,39.095 C84.131,33.285 80.567,30.095 74.006,29.532 C67.256,29.910 63.600,33.096 63.037,39.095 L84.694,39.095 ZM44.149,65.532 L30.367,65.532 L30.367,40.782 C30.367,34.221 27.647,30.938 22.211,30.938 C16.771,31.501 13.866,34.973 13.492,41.345 L13.492,65.532 L-0.008,65.532 L-0.008,0.001 L13.492,0.001 L13.492,28.126 C17.430,23.252 22.211,20.721 27.836,20.532 C38.897,20.348 44.333,26.346 44.149,38.532 L44.149,65.532 ZM385.991,56.813 C386.365,63.937 382.897,67.404 375.585,67.220 C373.519,67.404 368.835,67.501 361.522,67.501 C361.333,66.749 360.960,65.343 360.397,63.282 C359.835,61.406 359.457,60.092 359.272,59.345 C362.085,59.534 365.833,59.626 370.522,59.626 C372.957,59.626 374.271,58.879 374.460,57.376 L342.679,57.376 L342.679,67.501 L331.429,67.501 L331.429,32.063 L385.991,32.063 L385.991,56.813 ZM374.741,39.095 L342.679,39.095 L342.679,41.626 L374.741,41.626 L374.741,39.095 ZM374.741,48.095 L342.679,48.095 L342.679,50.626 L374.741,50.626 L374.741,48.095 Z" class="cls-1"/>
</svg>
