<?xml version="1.0" encoding="utf-8"?>
<!-- Generator: Adobe Illustrator 15.0.0, SVG Export Plug-In . SVG Version: 6.00 Build 0)  -->
<!DOCTYPE svg PUBLIC "-//W3C//DTD SVG 1.1//EN" "http://www.w3.org/Graphics/SVG/1.1/DTD/svg11.dtd">
<svg version="1.1" id="图层_1" xmlns="http://www.w3.org/2000/svg" xmlns:xlink="http://www.w3.org/1999/xlink" x="0px" y="0px"
	 width="157px" height="55px" viewBox="0 0 157 55" enable-background="new 0 0 157 55" xml:space="preserve">
<g>
	<g>
		<path fill="#FFFFFF" d="M30.07,5.094h-5.664v36.328c0.259,2.865-1.043,4.169-3.906,3.906c-2.606,0-4.688-0.064-6.25-0.195
			c0.65,1.563,1.041,3.32,1.172,5.273c2.472,0,4.947,0,7.422,0c5.078,0,7.486-2.411,7.227-7.227V5.094z M11.906,15.25
			c-2.215,8.203-5.209,16.016-8.984,23.438c1.69,0.521,3.516,1.239,5.469,2.148c3.516-8.072,6.573-16.08,9.18-24.023L11.906,15.25z
			 M40.617,15.25l-5.273,1.758c3.775,8.466,6.964,16.211,9.57,23.242l5.664-1.953c-0.262-0.781-0.781-1.953-1.563-3.516
			C45.109,25.669,42.308,19.156,40.617,15.25z M58.977,51.188h5.078V43.18h25.391v0.977c0.128,1.822-0.977,2.667-3.32,2.539
			c-3.125,0-5.536-0.067-7.227-0.195c0,0.26,0.064,0.586,0.195,0.977c0.391,1.69,0.715,2.799,0.977,3.32c2.994,0,5.729,0,8.203,0
			c4.297-0.263,6.378-2.279,6.25-6.055V27.164H58.977V51.188z M64.055,30.484h25.391v3.125H64.055V30.484z M64.055,36.93h25.391
			v2.93H64.055V36.93z M79.289,17.984h16.992v-3.32H79.289v-2.93H98.82v-3.32H79.289V4.508h-5.273v3.906H54.68v3.32h19.336v2.93
			H57.023v3.32h16.992v2.93H53.508v3.32h46.289v-3.32H79.289V17.984z M118.938,7.633l-16.992,40.625h7.031l4.102-9.766h18.164
			l3.906,9.766h7.227L125.383,7.633H118.938z M115.422,32.633l5.664-14.258c0.65-1.431,1.041-2.734,1.172-3.906h0.195
			c0,0.913,0.323,2.215,0.977,3.906l5.469,14.258H115.422z M147.648,7.828v40.43h6.641V7.828H147.648z"/>
	</g>
</g>
</svg>
