<svg xmlns="http://www.w3.org/2000/svg" width="157" height="55" viewBox="0 0 157 55"><path fill="#FFF" d="M30.07 5.094h-5.664v36.328c.259 2.865-1.043 4.169-3.906 3.906-2.606 0-4.688-.064-6.25-.195.65 1.563 1.041 3.32 1.172 5.273h7.422c5.078 0 7.486-2.411 7.227-7.227V5.094zM11.906 15.25c-2.215 8.203-5.209 16.016-8.984 23.438 1.69.521 3.516 1.239 5.469 2.148 3.516-8.072 6.573-16.08 9.18-24.023l-5.665-1.563zm28.711 0l-5.273 1.758c3.775 8.466 6.964 16.211 9.57 23.242l5.664-1.953c-.262-.781-.781-1.953-1.563-3.516a6702.981 6702.981 0 0 0-8.398-19.531zm18.36 35.938h5.078V43.18h25.391v.977c.128 1.822-.977 2.667-3.32 2.539-3.125 0-5.536-.067-7.227-.195 0 .26.064.586.195.977.391 1.69.715 2.799.977 3.32h8.203c4.297-.263 6.378-2.279 6.25-6.055V27.164H58.977v24.024zm5.078-20.704h25.391v3.125H64.055v-3.125zm0 6.446h25.391v2.93H64.055v-2.93zm15.234-18.946h16.992v-3.32H79.289v-2.93H98.82v-3.32H79.289V4.508h-5.273v3.906H54.68v3.32h19.336v2.93H57.023v3.32h16.992v2.93H53.508v3.32h46.289v-3.32H79.289v-2.93zm39.649-10.351l-16.992 40.625h7.031l4.102-9.766h18.164l3.906 9.766h7.227L125.383 7.633h-6.445zm-3.516 25l5.664-14.258c.65-1.431 1.041-2.734 1.172-3.906h.195c0 .913.323 2.215.977 3.906l5.469 14.258h-13.477zm32.226-24.805v40.43h6.641V7.828h-6.641z"/></svg>