<svg xmlns="http://www.w3.org/2000/svg" preserveAspectRatio="xMidYMid" width="392.469" height="82.687" viewBox="0 0 392.469 82.687"><defs><style>.cls-1{fill:#37474f;fill-rule:evenodd}</style></defs><path d="M392.46 22.782v7.031h-67.5v-7.031h28.125v-2.25h-23.344v-6.187h23.344v-2.25h-26.156V5.063h26.156v-4.5h11.25v4.5h26.156v7.032h-26.156v2.25h23.344v6.187h-23.344v2.25h28.125zm-93.42-4.781l11.531-3.375c1.499 4.5 4.03 11.628 7.594 21.375 1.872 5.44 3.278 9.47 4.219 12.094l-12.094 3.937a484.349 484.349 0 0 0-11.25-34.031zm-16.313 48.094c-3.375.184-7.312.281-11.812.281-.189-2.25-.752-5.159-1.688-8.719a96.281 96.281 0 0 0-.843-2.812c2.061.189 5.154.281 9.281.281 3.375 0 4.966-1.591 4.781-4.781V1.407h12.375v52.594c.563 8.059-3.472 12.094-12.094 12.094zm-29.531-17.719c4.122-11.25 7.594-22.311 10.406-33.188l12.094 2.813a675.403 675.403 0 0 1-11.25 34.594l-11.25-4.219zM215.7 77.626c5.625-3.002 8.53-6.939 8.719-11.813h-7.594V51.751h14.625v12.094c.562 8.437-3.564 14.717-12.375 18.843l-3.375-5.062zm-45.653-10.969c-15.376-.94-23.44-8.53-24.187-22.781.747-14.999 8.903-22.781 24.469-23.344 15.372.563 23.343 8.345 23.906 23.344-.563 14.625-8.627 22.219-24.188 22.781zm-.281-35.719c-6.565 0-9.844 4.316-9.844 12.938.185 8.253 3.468 12.472 9.844 12.656 6.935 0 10.406-4.219 10.406-12.656-.189-8.438-3.656-12.749-10.406-12.938zM126.127.001h13.782v65.531h-13.782V.001zm-21.701 0h13.781v65.531h-13.781V.001zM74.569 57.657c5.062-.184 8.248-2.061 9.562-5.625l14.625 1.688c-3.564 8.622-11.531 12.937-23.906 12.937-16.128-.562-24.566-7.875-25.313-21.937.563-15.561 8.438-23.625 23.625-24.188 16.313 0 24.561 7.972 24.75 23.906v3.375H63.319c.562 6.003 4.311 9.282 11.25 9.844zm10.125-18.562c-.563-5.81-4.127-9-10.688-9.563-6.75.378-10.406 3.564-10.969 9.563h21.657zM44.149 65.532H30.367v-24.75c0-6.561-2.72-9.844-8.156-9.844-5.44.563-8.345 4.035-8.719 10.407v24.187h-13.5V.001h13.5v28.125c3.938-4.874 8.719-7.405 14.344-7.594 11.061-.184 16.497 5.814 16.313 18v27zm341.842-8.719c.374 7.124-3.094 10.591-10.406 10.407-2.066.184-6.75.281-14.063.281-.189-.752-.562-2.158-1.125-4.219-.562-1.876-.94-3.19-1.125-3.937 2.813.189 6.561.281 11.25.281 2.435 0 3.749-.747 3.938-2.25h-31.781v10.125h-11.25V32.063h54.562v24.75zm-11.25-17.718h-32.062v2.531h32.062v-2.531zm0 9h-32.062v2.531h32.062v-2.531z" class="cls-1"/></svg>